HIERARCHY
ROOT Hips
{
  OFFSET -305.516 93.251 603.965
  CHANNELS 6 Xposition Yposition Zposition Zrotation Xrotation Yrotation
  JOINT Spine
  {
    OFFSET 0 8 1.46513e-05
    CHANNELS 6 Xposition Yposition Zposition Zrotation Xrotation Yrotation
    JOINT Spine1
    {
      OFFSET -1.61071e-05 8 -2.31587e-05
      CHANNELS 6 Xposition Yposition Zposition Zrotation Xrotation Yrotation
      JOINT Spine2
      {
        OFFSET 0 8 0
        CHANNELS 6 Xposition Yposition Zposition Zrotation Xrotation Yrotation
        JOINT Spine3
        {
          OFFSET 0 8 0
          CHANNELS 6 Xposition Yposition Zposition Zrotation Xrotation Yrotation
          JOINT Neck
          {
            OFFSET 0 17 -0.000275479
            CHANNELS 6 Xposition Yposition Zposition Zrotation Xrotation Yrotation
            JOINT Head
            {
              OFFSET 0 10.8 0
              CHANNELS 6 Xposition Yposition Zposition Zrotation Xrotation Yrotation
              End Site
              {
                OFFSET 0 20.25 0
              }
            }
          }
          JOINT LeftShoulder
          {
            OFFSET 4.99998 17 -0.000320569
            CHANNELS 6 Xposition Yposition Zposition Zrotation Xrotation Yrotation
            JOINT LeftShoulder2
            {
              OFFSET 6.45 0 0
              CHANNELS 6 Xposition Yposition Zposition Zrotation Xrotation Yrotation
              JOINT LeftArm
              {
                OFFSET 6.44999 0.000134698 -0.000383032
                CHANNELS 6 Xposition Yposition Zposition Zrotation Xrotation Yrotation
                JOINT LeftForeArm
                {
                  OFFSET -1.07667e-05 -32.4 -2.00004
                  CHANNELS 6 Xposition Yposition Zposition Zrotation Xrotation Yrotation
                  JOINT LeftHand
                  {
                    OFFSET 3.80708e-05 -25.65 1.99997
                    CHANNELS 6 Xposition Yposition Zposition Zrotation Xrotation Yrotation
                    JOINT LeftHandThumb1
                    {
                      OFFSET -0.500009 -1.49998 2.65004
                      CHANNELS 6 Xposition Yposition Zposition Zrotation Xrotation Yrotation
                      JOINT LeftHandThumb2
                      {
                        OFFSET -1.92473e-05 -3.8 3.69997
                        CHANNELS 6 Xposition Yposition Zposition Zrotation Xrotation Yrotation
                        JOINT LeftHandThumb3
                        {
                          OFFSET 2.00784e-05 -3 2.7
                          CHANNELS 6 Xposition Yposition Zposition Zrotation Xrotation Yrotation
                          End Site
                          {
                            OFFSET -1.11338e-05 -2.29998 1.80002
                          }
                        }
                      }
                    }
                    JOINT LeftHandIndex
                    {
                      OFFSET 0 -1.89998 1.60004
                      CHANNELS 6 Xposition Yposition Zposition Zrotation Xrotation Yrotation
                      JOINT LeftHandIndex1
                      {
                        OFFSET -1.05977e-05 -8.3 1.89998
                        CHANNELS 6 Xposition Yposition Zposition Zrotation Xrotation Yrotation
                        JOINT LeftHandIndex2
                        {
                          OFFSET 3.47462e-05 -4.49999 2.17521e-05
                          CHANNELS 6 Xposition Yposition Zposition Zrotation Xrotation Yrotation
                          JOINT LeftHandIndex3
                          {
                            OFFSET 1.77078e-05 -3.40002 -1.80884e-05
                            CHANNELS 6 Xposition Yposition Zposition Zrotation Xrotation Yrotation
                            End Site
                            {
                              OFFSET -1.36031e-05 -2.59999 0
                            }
                          }
                        }
                      }
                    }
                    JOINT LeftHandMiddle
                    {
                      OFFSET -0.250011 -2.19998 0.400022
                      CHANNELS 6 Xposition Yposition Zposition Zrotation Xrotation Yrotation
                      JOINT LeftHandMiddle1
                      {
                        OFFSET 1.06397e-05 -8.30002 0.99998
                        CHANNELS 6 Xposition Yposition Zposition Zrotation Xrotation Yrotation
                        JOINT LeftHandMiddle2
                        {
                          OFFSET 0 -4.65 1.53436e-05
                          CHANNELS 6 Xposition Yposition Zposition Zrotation Xrotation Yrotation
                          JOINT LeftHandMiddle3
                          {
                            OFFSET -1.17926e-05 -3.29999 0
                            CHANNELS 6 Xposition Yposition Zposition Zrotation Xrotation Yrotation
                            End Site
                            {
                              OFFSET -5.0135e-05 -2.7 0
                            }
                          }
                        }
                      }
                    }
                    JOINT LeftHandRing
                    {
                      OFFSET -0.499993 -2.15 -0.799996
                      CHANNELS 6 Xposition Yposition Zposition Zrotation Xrotation Yrotation
                      JOINT LeftHandRing1
                      {
                        OFFSET -2.65073e-05 -7.74998 -0.199963
                        CHANNELS 6 Xposition Yposition Zposition Zrotation Xrotation Yrotation
                        JOINT LeftHandRing2
                        {
                          OFFSET 1.55709e-05 -3.80003 -4.41857e-05
                          CHANNELS 6 Xposition Yposition Zposition Zrotation Xrotation Yrotation
                          JOINT LeftHandRing3
                          {
                            OFFSET -1.04809e-05 -3.39998 3.33721e-05
                            CHANNELS 6 Xposition Yposition Zposition Zrotation Xrotation Yrotation
                            End Site
                            {
                              OFFSET 3.73501e-05 -2.60002 0
                            }
                          }
                        }
                      }
                    }
                    JOINT LeftHandPinky
                    {
                      OFFSET -0.750001 -1.74999 -1.84999
                      CHANNELS 6 Xposition Yposition Zposition Zrotation Xrotation Yrotation
                      JOINT LeftHandPinky1
                      {
                        OFFSET 0 -7.15001 -1.00001
                        CHANNELS 6 Xposition Yposition Zposition Zrotation Xrotation Yrotation
                        JOINT LeftHandPinky2
                        {
                          OFFSET 0 -2.99999 1.12511e-05
                          CHANNELS 6 Xposition Yposition Zposition Zrotation Xrotation Yrotation
                          JOINT LeftHandPinky3
                          {
                            OFFSET 2.98372e-05 -2.35 0
                            CHANNELS 6 Xposition Yposition Zposition Zrotation Xrotation Yrotation
                            End Site
                            {
                              OFFSET 0 -2.1 -1.21655e-05
                            }
                          }
                        }
                      }
                    }
                  }
                }
              }
            }
          }
          JOINT RightShoulder
          {
            OFFSET -5.00002 17 -0.000180615
            CHANNELS 6 Xposition Yposition Zposition Zrotation Xrotation Yrotation
            JOINT RightShoulder2
            {
              OFFSET -6.45 0 0
              CHANNELS 6 Xposition Yposition Zposition Zrotation Xrotation Yrotation
              JOINT RightArm
              {
                OFFSET -6.44997 -0.00043509 0.00111637
                CHANNELS 6 Xposition Yposition Zposition Zrotation Xrotation Yrotation
                JOINT RightForeArm
                {
                  OFFSET 0 -32.4 -2.00005
                  CHANNELS 6 Xposition Yposition Zposition Zrotation Xrotation Yrotation
                  JOINT RightHand
                  {
                    OFFSET 0 -25.65 2.00001
                    CHANNELS 6 Xposition Yposition Zposition Zrotation Xrotation Yrotation
                    JOINT RightHandThumb1
                    {
                      OFFSET 0.500018 -1.5 2.64999
                      CHANNELS 6 Xposition Yposition Zposition Zrotation Xrotation Yrotation
                      JOINT RightHandThumb2
                      {
                        OFFSET 2.39438e-05 -3.80002 3.70002
                        CHANNELS 6 Xposition Yposition Zposition Zrotation Xrotation Yrotation
                        JOINT RightHandThumb3
                        {
                          OFFSET -2.14568e-05 -2.99999 2.69999
                          CHANNELS 6 Xposition Yposition Zposition Zrotation Xrotation Yrotation
                          End Site
                          {
                            OFFSET -2.73748e-05 -2.3 1.79998
                          }
                        }
                      }
                    }
                    JOINT RightHandIndex
                    {
                      OFFSET 1.64587e-05 -1.90001 1.60001
                      CHANNELS 6 Xposition Yposition Zposition Zrotation Xrotation Yrotation
                      JOINT RightHandIndex1
                      {
                        OFFSET 0 -8.3 1.89993
                        CHANNELS 6 Xposition Yposition Zposition Zrotation Xrotation Yrotation
                        JOINT RightHandIndex2
                        {
                          OFFSET 0 -4.50001 -1.29973e-05
                          CHANNELS 6 Xposition Yposition Zposition Zrotation Xrotation Yrotation
                          JOINT RightHandIndex3
                          {
                            OFFSET 6.01008e-05 -3.4 0
                            CHANNELS 6 Xposition Yposition Zposition Zrotation Xrotation Yrotation
                            End Site
                            {
                              OFFSET -1.03257e-05 -2.6 3.22497e-05
                            }
                          }
                        }
                      }
                    }
                    JOINT RightHandMiddle
                    {
                      OFFSET 0.250048 -2.20001 0.399996
                      CHANNELS 6 Xposition Yposition Zposition Zrotation Xrotation Yrotation
                      JOINT RightHandMiddle1
                      {
                        OFFSET -2.52443e-05 -8.30001 1.00002
                        CHANNELS 6 Xposition Yposition Zposition Zrotation Xrotation Yrotation
                        JOINT RightHandMiddle2
                        {
                          OFFSET -5.92227e-05 -4.64999 -1.25334e-05
                          CHANNELS 6 Xposition Yposition Zposition Zrotation Xrotation Yrotation
                          JOINT RightHandMiddle3
                          {
                            OFFSET 2.86433e-05 -3.29999 -2.69847e-05
                            CHANNELS 6 Xposition Yposition Zposition Zrotation Xrotation Yrotation
                            End Site
                            {
                              OFFSET 0 -2.7 0
                            }
                          }
                        }
                      }
                    }
                    JOINT RightHandRing
                    {
                      OFFSET 0.500038 -2.15001 -0.800008
                      CHANNELS 6 Xposition Yposition Zposition Zrotation Xrotation Yrotation
                      JOINT RightHandRing1
                      {
                        OFFSET 1.4153e-05 -7.75001 -0.199988
                        CHANNELS 6 Xposition Yposition Zposition Zrotation Xrotation Yrotation
                        JOINT RightHandRing2
                        {
                          OFFSET 0 -3.79998 -1.82841e-05
                          CHANNELS 6 Xposition Yposition Zposition Zrotation Xrotation Yrotation
                          JOINT RightHandRing3
                          {
                            OFFSET 0 -3.39999 0
                            CHANNELS 6 Xposition Yposition Zposition Zrotation Xrotation Yrotation
                            End Site
                            {
                              OFFSET 0 -2.59999 0
                            }
                          }
                        }
                      }
                    }
                    JOINT RightHandPinky
                    {
                      OFFSET 0.750019 -1.75002 -1.84999
                      CHANNELS 6 Xposition Yposition Zposition Zrotation Xrotation Yrotation
                      JOINT RightHandPinky1
                      {
                        OFFSET 0 -7.14999 -1.00002
                        CHANNELS 6 Xposition Yposition Zposition Zrotation Xrotation Yrotation
                        JOINT RightHandPinky2
                        {
                          OFFSET 0 -3.00004 2.62755e-05
                          CHANNELS 6 Xposition Yposition Zposition Zrotation Xrotation Yrotation
                          JOINT RightHandPinky3
                          {
                            OFFSET 0 -2.34998 -2.41617e-05
                            CHANNELS 6 Xposition Yposition Zposition Zrotation Xrotation Yrotation
                            End Site
                            {
                              OFFSET 0 -2.09999 -2.32512e-05
                            }
                          }
                        }
                      }
                    }
                  }
                }
              }
            }
          }
        }
      }
    }
  }
  JOINT LeftUpLeg
  {
    OFFSET 8 0 0
    CHANNELS 6 Xposition Yposition Zposition Zrotation Xrotation Yrotation
    JOINT LeftLeg
    {
      OFFSET 0 -45 -1.00003
      CHANNELS 6 Xposition Yposition Zposition Zrotation Xrotation Yrotation
      JOINT LeftFoot
      {
        OFFSET 0 -41.0001 -1.99998
        CHANNELS 6 Xposition Yposition Zposition Zrotation Xrotation Yrotation
        JOINT LeftToeBase
        {
          OFFSET -5.39085e-05 -7.5 12.5
          CHANNELS 6 Xposition Yposition Zposition Zrotation Xrotation Yrotation
          JOINT LeftFootToe
          {
            OFFSET 0 0 4
            CHANNELS 6 Xposition Yposition Zposition Zrotation Xrotation Yrotation
            End Site
            {
              OFFSET 0 0 0
            }
          }
        }
      }
    }
  }
  JOINT RightUpLeg
  {
    OFFSET -8 0 0
    CHANNELS 6 Xposition Yposition Zposition Zrotation Xrotation Yrotation
    JOINT RightLeg
    {
      OFFSET -1.90108e-05 -45 -1
      CHANNELS 6 Xposition Yposition Zposition Zrotation Xrotation Yrotation
      JOINT RightFoot
      {
        OFFSET 6.05558e-05 -41.0001 -1.99997
        CHANNELS 6 Xposition Yposition Zposition Zrotation Xrotation Yrotation
        JOINT RightToeBase
        {
          OFFSET 1.66777e-05 -7.5 12.5
          CHANNELS 6 Xposition Yposition Zposition Zrotation Xrotation Yrotation
          JOINT RightFootToe
          {
            OFFSET 0 0 4
            CHANNELS 6 Xposition Yposition Zposition Zrotation Xrotation Yrotation
            End Site
            {
              OFFSET 0 0 0
            }
          }
        }
      }
    }
  }
}
MOTION
Frames:	3
Frame Time:	0.0111111
-270.05 92.6515 615.669 0.832899 -0.85542 165.59 2.84217e-14 8 0 13.2079 13.9759 -1.54274 0 8 0 3.64677 5.60597 2.77432 0 8 0 1.85708 2.78382 1.43159 0 8 0 1.85353 2.77945 1.42832 0 17 -1.13687e-13 3.58408 6.02795 -9.60871 0 10.8 -1.13687e-13 10.0565 13.0178 -23.4313 5 17 0 0.701422 3.58677 0.585912 6.45 -2.84217e-14 0 -0.677595 -1.95398 -1.66929 6.45 -2.84217e-14 -2.27374e-13 79.7763 -25.6251 26.985 0 -32.4 -2 -78.7686 -35.1876 -45.4724 0 -25.65 2 -0.203864 16.1751 -26.689 -0.5 -1.5 2.65 -2.36602 -28.5981 -6.27855 5.68434e-14 -3.8 3.7 0.1581 29.8535 0.17863 -5.68434e-14 -3 2.7 -0.185593 23.516 -0.623813 0 -1.9 1.6 -3.89406e-06 3.86595e-06 -7.9273e-07 0 -8.3 1.9 -14.5677 11.3251 1.92126 1.13687e-13 -4.5 -5.68434e-14 -65.7301 -0.0263139 -0.145572 5.68434e-14 -3.4 0 -47.8258 0.0903308 -0.11856 -0.25 -2.2 0.4 -3.89406e-06 3.86595e-06 -7.9273e-07 0 -8.3 1 -37.9356 12.8281 6.35313 0 -4.65 0 -10.8592 -0.0531062 -0.0984877 0 -3.3 0 -9.25064 -0.0272442 -0.0800459 -0.5 -2.15 -0.8 -3.89406e-06 3.86595e-06 -7.9273e-07 5.68434e-14 -7.75 -0.2 -51.9356 5.9973 6.29592 1.13687e-13 -3.8 0 -71.4436 -0.000199054 -0.0148064 8.88178e-15 -3.4 0 -53.6673 0.0155908 -0.00780307 -0.75 -1.75 -1.85 -3.89406e-06 3.86595e-06 -7.9273e-07 5.68434e-14 -7.15 -1 -77.1966 -0.308036 8.28871 0 -3 0 -22.1248 -0.016724 -0.108058 -2.84217e-14 -2.35 5.68434e-14 -17.1963 0.0114444 -0.0681793 -5 17 -1.13687e-13 9.67042 -3.49763 -2.27254 -6.45 2.84217e-14 0 -1.57475 0.218211 -0.268616 -6.45 2.84217e-14 0 -28.6711 -2.5741 -23.8198 2.84217e-14 -32.4 -2 -40.6216 -77.6093 -43.8914 0 -25.65 2 -24.6456 -6.38514 -12.8527 0.5 -1.5 2.65 21.9368 10.0811 -0.469052 1.13687e-13 -3.8 3.7 2.71478 -1.09488 -0.592407 5.68434e-14 -3 2.7 0.513581 59.109 -0.444984 0 -1.9 1.6 6.36111e-15 7.95139e-16 -0 -5.68434e-14 -8.3 1.9 24.9661 8.2835 -2.07258 0 -4.5 -2.84217e-14 46.2169 0.195136 -0.094821 2.84217e-14 -3.4 0 30.6361 -0.078398 -0.031078 0.25 -2.2 0.4 6.36111e-15 7.95139e-16 -0 0 -8.3 1 51.263 8.98454 -6.92829 -2.84217e-14 -4.65 0 32.9051 0.0585951 0.0426495 5.68434e-14 -3.3 0 23.3231 -0.106258 0.111477 0.5 -2.15 -0.8 6.36111e-15 7.95139e-16 -0 -5.68434e-14 -7.75 -0.2 59.2973 6.35704 -8.45567 0 -3.8 2.84217e-14 24.5456 0.172144 0.00358478 -5.68434e-14 -3.4 0 18.7676 0.0587444 0.0086273 0.75 -1.75 -1.85 6.36111e-15 7.95139e-16 -0 -5.68434e-14 -7.15 -1 86.9217 -0.123475 -12.816 0 -3 0 86.1714 0.155841 -0.0633834 -5.68434e-14 -2.35 2.84217e-14 78.6339 -0.00440098 -0.205502 8 0 1.13687e-13 12.2385 -4.55634 6.62642 2.84217e-14 -45 -1 -1.08639 -1.4259 -3.6389 5.68434e-14 -41 -2 -10.2935 4.74795 -15.5967 5.68434e-14 -7.5 12.5 -1.14825e-08 -1.11001e-05 1.3151e-08 -2.84217e-14 0 4 -0.0667462 -8.91104 37.1013 -8 0 0 -4.63018 0.48357 -7.12003 0 -45 -1 0.0021803 3.85718 0.385829 -2.84217e-14 -41 -2 5.72731 -4.26977 -3.50955 0 -7.5 12.5 6.80858e-07 0.235254 8.7189e-08 -2.84217e-14 0 4 -3.4011 -1.15384 27.6689 
-270.135 92.6517 615.612 0.764954 -0.869292 165.482 -2.84217e-14 8 0 13.0692 14.1982 -1.5967 8.52651e-14 8 1.13687e-13 3.63137 5.65292 2.75217 2.84217e-14 8 -1.13687e-13 1.84937 2.80762 1.4207 -5.68434e-14 8 0 1.84665 2.80115 1.41825 2.84217e-14 17 0 3.58006 5.96456 -9.54747 -2.84217e-14 10.8 0 10.0163 12.8787 -23.2702 5 17 0 0.748904 3.53248 0.616871 6.45 -2.84217e-14 -1.13687e-13 -0.659689 -1.95304 -1.65575 6.45 0 0 79.5347 -26.0792 26.6992 -1.42109e-14 -32.4 -2 -78.2983 -33.0774 -42.9045 5.68434e-14 -25.65 2 -2.38377 17.3522 -24.8643 -0.5 -1.5 2.65 -1.27427 -27.9696 -4.84942 0 -3.8 3.7 0.189212 28.5846 0.205454 -1.13687e-13 -3 2.7 -0.164035 25.9264 -0.642285 0 -1.9 1.6 -3.89406e-06 3.86595e-06 -7.9273e-07 0 -8.3 1.9 -15.1722 10.8941 1.92602 1.13687e-13 -4.5 0 -66.8455 -0.0108132 -0.0980474 0 -3.4 0 -48.8417 0.0659049 -0.0723562 -0.25 -2.2 0.4 -3.89406e-06 3.86595e-06 -7.9273e-07 0 -8.3 1 -38.683 12.2288 6.22482 0 -4.65 0 -12.0674 -0.0479087 -0.089423 1.13687e-13 -3.3 0 -10.153 -0.0237962 -0.0720204 -0.5 -2.15 -0.8 -3.89406e-06 3.86595e-06 -7.9273e-07 0 -7.75 -0.2 -52.814 6.21034 6.5168 0 -3.8 0 -71.4908 -0.000456303 -0.0251932 0 -3.4 5.68434e-14 -53.7253 0.0248268 -0.0139477 -0.75 -1.75 -1.85 -3.89406e-06 3.86595e-06 -7.9273e-07 0 -7.15 -1 -78.0852 -0.471589 8.39094 5.68434e-14 -3 0 -22.4534 -0.0087628 -0.0860461 -2.84217e-14 -2.35 0 -17.4084 0.0097461 -0.053856 -5 17 0 9.6519 -3.46309 -2.43379 -6.45 0 0 -1.59932 0.225789 -0.300313 -6.45 0 -1.13687e-13 -28.8157 -2.96703 -23.4639 -2.84217e-14 -32.4 -2 -40.4542 -77.6061 -43.8081 -8.52651e-14 -25.65 2 -24.7233 -6.35157 -12.6796 0.5 -1.5 2.65 21.9922 10.0429 -0.524903 0 -3.8 3.7 2.71414 -1.1541 -0.592504 0 -3 2.7 0.512501 59.1011 -0.444079 0 -1.9 1.6 6.36111e-15 -2.38542e-15 -0 5.68434e-14 -8.3 1.9 25.02 8.31633 -2.0851 2.84217e-14 -4.5 0 46.1252 0.195157 -0.095175 5.68434e-14 -3.4 0 30.5781 -0.0792898 -0.0319102 0.25 -2.2 0.4 6.36111e-15 -2.38542e-15 -0 5.68434e-14 -8.3 1 51.3528 8.98916 -6.94531 0 -4.65 2.84217e-14 32.79 0.0587683 0.0434502 5.68434e-14 -3.3 -2.84217e-14 23.2542 -0.107108 0.111774 0.5 -2.15 -0.8 6.36111e-15 -2.38542e-15 -0 -1.7053e-13 -7.75 -0.2 59.3437 6.35932 -8.46626 -4.26326e-14 -3.8 -2.84217e-14 24.5233 0.171579 0.00378199 0 -3.4 0 18.7538 0.0583886 0.00861899 0.75 -1.75 -1.85 6.36111e-15 -2.38542e-15 -0 -5.68434e-14 -7.15 -1 86.9648 -0.126696 -12.8445 0 -3 -2.84217e-14 86.2765 0.155708 -0.0635088 -1.13687e-13 -2.35 0 78.8949 -0.00435416 -0.204115 8 0 0 12.1122 -4.50636 6.62314 5.68434e-14 -45 -1 -1.08476 -1.48442 -3.61485 0 -41 -2 -10.2368 4.75412 -15.5658 -1.13687e-13 -7.5 12.5 -1.14825e-08 -1.12069e-05 1.3151e-08 0 0 4 -0.160318 -8.98507 37.097 -8 1.42109e-14 0 -4.77283 0.458768 -7.23215 0 -45 -1 0.00219817 3.85381 0.368968 0 -41 -2 5.81063 -4.24808 -3.28282 5.68434e-14 -7.5 12.5 6.80857e-07 0.235658 8.7189e-08 0 0 4 -3.46368 -1.192 27.6689 
-270.219 92.6519 615.566 0.704494 -0.882774 165.384 2.84217e-14 8 0 12.9275 14.4153 -1.65786 0 8 0 3.614 5.70401 2.72463 0 8 0 1.84063 2.83354 1.40711 5.68434e-14 8 0 1.83692 2.82769 1.40431 0 17 0 3.57939 5.90213 -9.48087 5.68434e-14 10.8 0 9.98399 12.7418 -23.0972 5 17 0 0.827036 3.47063 0.65179 6.45 0 1.13687e-13 -0.641863 -1.95301 -1.6527 6.45 -8.52651e-14 -1.13687e-13 79.2356 -26.6039 26.3233 -2.84217e-14 -32.4 -2 -77.8892 -30.9826 -40.329 0 -25.65 2 -5.04467 18.5539 -22.6761 -0.5 -1.5 2.65 -0.055136 -27.3668 -3.36484 -1.13687e-13 -3.8 3.7 0.212364 27.2651 0.226329 1.13687e-13 -3 2.7 -0.139175 28.2021 -0.640194 1.13687e-13 -1.9 1.6 -3.89406e-06 3.86595e-06 -7.9273e-07 0 -8.3 1.9 -15.6381 10.4643 1.91598 -1.13687e-13 -4.5 0 -67.9078 0.000676449 -0.0603752 -2.84217e-14 -3.4 0 -49.856 0.0463205 -0.0372394 -0.25 -2.2 0.4 -3.89406e-06 3.86595e-06 -7.9273e-07 0 -8.3 1 -39.3958 11.6283 6.10169 -1.13687e-13 -4.65 -5.68434e-14 -13.0416 -0.0328619 -0.0648328 0 -3.3 -5.68434e-14 -10.8866 -0.0158458 -0.0518095 -0.5 -2.15 -0.8 -3.89406e-06 3.86595e-06 -7.9273e-07 0 -7.75 -0.2 -53.4702 6.45217 6.73218 0 -3.8 0 -71.7168 -0.000715472 -0.0345945 0 -3.4 0 -54.0059 0.0346531 -0.0194858 -0.75 -1.75 -1.85 -3.89406e-06 3.86595e-06 -7.9273e-07 0 -7.15 -1 -78.8939 -0.624073 8.50087 0 -3 -5.68434e-14 -22.716 0.00195096 -0.0499265 -4.26326e-14 -2.35 0 -17.5784 0.00796859 -0.0304222 -5 17 0 9.64636 -3.44265 -2.60724 -6.45 -2.84217e-14 -1.13687e-13 -1.62501 0.232544 -0.333359 -6.45 0 0 -28.9601 -3.38668 -23.0682 2.84217e-14 -32.4 -2 -40.18 -77.5716 -43.634 0 -25.65 2 -24.8049 -6.32973 -12.5113 0.5 -1.5 2.65 22.048 10.0204 -0.57852 0 -3.8 3.7 2.71362 -1.20277 -0.592598 0 -3 2.7 0.511272 59.0827 -0.443041 0 -1.9 1.6 6.36111e-15 0 -0 1.13687e-13 -8.3 1.9 25.0793 8.33186 -2.09399 5.68434e-14 -4.5 2.84217e-14 46.0329 0.195169 -0.0955167 0 -3.4 -2.84217e-14 30.5198 -0.080178 -0.032741 0.25 -2.2 0.4 6.36111e-15 0 -0 -1.13687e-13 -8.3 1 51.4391 8.98581 -6.95772 -2.84217e-14 -4.65 0 32.6735 0.058935 0.0442484 5.68434e-14 -3.3 -2.84217e-14 23.1845 -0.107952 0.112063 0.5 -2.15 -0.8 6.36111e-15 0 -0 -1.13687e-13 -7.75 -0.2 59.3889 6.35511 -8.47276 0 -3.8 0 24.4818 0.171004 0.00403575 0 -3.4 0 18.728 0.0580115 0.00861376 0.75 -1.75 -1.85 6.36111e-15 0 -0 0 -7.15 -1 87.0048 -0.131343 -12.8697 0 -3 0 86.3742 0.155568 -0.0636302 -5.68434e-14 -2.35 -2.84217e-14 79.1386 -0.00430838 -0.202722 8 1.42109e-14 -1.13687e-13 11.9978 -4.47652 6.61914 0 -45 -1 -1.08312 -1.51419 -3.5928 0 -41 -2 -10.181 4.75023 -15.5411 2.84217e-14 -7.5 12.5 -1.14825e-08 -1.13132e-05 1.3151e-08 -5.68434e-14 0 4 -0.240142 -9.05803 37.0939 -8 0 0 -4.90394 0.432241 -7.33814 -5.68434e-14 -45 -1 0.00233489 3.85007 0.351646 -2.84217e-14 -41 -2 5.88913 -4.22235 -3.07965 0 -7.5 12.5 6.80857e-07 0.236045 8.7189e-08 0 8.88178e-16 4 -3.4989 -1.21907 27.6689 
